<svg width="129" xmlns="http://www.w3.org/2000/svg" height="129" fill="none"><ellipse cx="64.5" cy="64.5" rx="64.5" ry="64.5" transform="matrix(1.000000, 0.000000, 0.000000, 1.000000, 0.000000, 0.000000)" class="fills"/><g class="strokes"><g class="outer-stroke-shape"><defs><mask id="b" x="-8.485" y="-8.485" width="145.971" height="145.971" maskUnits="userSpaceOnUse"><use href="#a" style="fill: none; stroke: white; stroke-width: 12;"/><use href="#a" style="fill: black; stroke: none;"/></mask><ellipse cx="64.5" cy="64.5" rx="64.5" ry="64.5" transform="matrix(1.000000, 0.000000, 0.000000, 1.000000, 0.000000, 0.000000)" id="a"/></defs><use href="#a" mask="url(#b)" style="fill: none; stroke-width: 12; stroke: rgb(239, 239, 239); stroke-opacity: 1;"/><use href="#a" style="fill: none; stroke-width: 6; stroke: none; stroke-opacity: 1;"/></g></g><path d="M34.000,87.000L30.842,93.000L27.500,93.000L65.513,20.000L100.500,93.000L97.474,93.000L94.000,87.000L34.000,87.000Z" class="fills"/><g class="strokes"><g class="outer-stroke-shape"><defs><mask id="d" x="13.015" y="5.515" width="101.971" height="101.971" maskUnits="userSpaceOnUse"><use href="#c" style="fill: none; stroke: white; stroke-width: 12;"/><use href="#c" style="fill: black; stroke: none;"/></mask><path d="M34.000,87.000L30.842,93.000L27.500,93.000L65.513,20.000L100.500,93.000L97.474,93.000L94.000,87.000L34.000,87.000Z" id="c"/></defs><use href="#c" mask="url(#d)" style="fill: none; stroke-width: 12; stroke: rgb(239, 239, 239); stroke-opacity: 1;"/><use href="#c" style="fill: none; stroke-width: 6; stroke: none; stroke-opacity: 1;"/></g></g></svg>