<svg width="163" xmlns="http://www.w3.org/2000/svg" height="163" fill="none"><defs><clipPath id="a" class="frame-clip frame-clip-def"><rect rx="0" ry="0" width="163" height="163" transform="matrix(1.000000, 0.000000, 0.000000, 1.000000, 0.000000, 0.000000)"/></clipPath></defs><g clip-path="url(#a)"><g class="fills"><rect rx="0" ry="0" width="163" height="163" transform="matrix(1.000000, 0.000000, 0.000000, 1.000000, 0.000000, 0.000000)" class="frame-background"/></g><g class="frame-children"><ellipse cx="81.5" cy="81.5" rx="64.5" ry="64.5" transform="matrix(1.000000, 0.000000, 0.000000, 1.000000, 0.000000, 0.000000)" class="fills"/><g class="strokes"><g class="outer-stroke-shape"><defs><mask id="c" x="8.515" y="8.515" width="145.971" height="145.971" maskUnits="userSpaceOnUse"><use href="#b" style="fill: none; stroke: white; stroke-width: 12;"/><use href="#b" style="fill: black; stroke: none;"/></mask><ellipse cx="81.5" cy="81.5" rx="64.5" ry="64.5" transform="matrix(1.000000, 0.000000, 0.000000, 1.000000, 0.000000, 0.000000)" id="b"/></defs><use href="#b" mask="url(#c)" style="fill: none; stroke-width: 12; stroke: rgb(239, 239, 239); stroke-opacity: 1;"/><use href="#b" style="fill: none; stroke-width: 6; stroke: none; stroke-opacity: 1;"/></g></g><path d="M51.500,104.000L48.342,110.000L45.000,110.000L83.013,37.000L118.000,110.000L114.974,110.000L111.500,104.000L51.500,104.000Z" class="fills"/><g class="strokes"><g class="outer-stroke-shape"><defs><mask id="e" x="30.515" y="22.515" width="101.971" height="101.971" maskUnits="userSpaceOnUse"><use href="#d" style="fill: none; stroke: white; stroke-width: 12;"/><use href="#d" style="fill: black; stroke: none;"/></mask><path d="M51.500,104.000L48.342,110.000L45.000,110.000L83.013,37.000L118.000,110.000L114.974,110.000L111.500,104.000L51.500,104.000Z" id="d"/></defs><use href="#d" mask="url(#e)" style="fill: none; stroke-width: 12; stroke: rgb(239, 239, 239); stroke-opacity: 1;"/><use href="#d" style="fill: none; stroke-width: 6; stroke: none; stroke-opacity: 1;"/></g></g></g></g></svg>