<svg width="177" xmlns="http://www.w3.org/2000/svg" height="177" fill="none"><ellipse cx="88" cy="89" rx="71" ry="71" transform="matrix(1.000000, 0.000000, 0.000000, 1.000000, 0.000000, 0.000000)" class="fills"/><g class="strokes"><g class="outer-stroke-shape"><defs><mask id="b" x="2.858" y="3.858" width="170.284" height="170.284" maskUnits="userSpaceOnUse"><use href="#a" style="fill: none; stroke: white; stroke-width: 20;"/><use href="#a" style="fill: black; stroke: none;"/></mask><ellipse cx="88" cy="89" rx="71" ry="71" transform="matrix(1.000000, 0.000000, 0.000000, 1.000000, 0.000000, 0.000000)" id="a"/></defs><use href="#a" mask="url(#b)" style="fill: none; stroke-width: 20; stroke: rgb(239, 239, 239); stroke-opacity: 1;"/><use href="#a" style="fill: none; stroke-width: 10; stroke: none; stroke-opacity: 1;"/></g></g><path d="M58.000,111.500L54.842,117.500L51.500,117.500L89.513,44.500L124.500,117.500L121.474,117.500L118.000,111.500L58.000,111.500Z" class="fills"/><g class="strokes"><g class="outer-stroke-shape"><defs><mask id="d" x="27.358" y="20.358" width="121.284" height="121.284" maskUnits="userSpaceOnUse"><use href="#c" style="fill: none; stroke: white; stroke-width: 20;"/><use href="#c" style="fill: black; stroke: none;"/></mask><path d="M58.000,111.500L54.842,117.500L51.500,117.500L89.513,44.500L124.500,117.500L121.474,117.500L118.000,111.500L58.000,111.500Z" id="c"/></defs><use href="#c" mask="url(#d)" style="fill: none; stroke-width: 20; stroke: rgb(239, 239, 239); stroke-opacity: 1;"/><use href="#c" style="fill: none; stroke-width: 10; stroke: none; stroke-opacity: 1;"/></g></g><rect rx="0" ry="0" transform="matrix(1.000000, 0.000000, 0.000000, 1.000000, 0.000000, 0.000000)" width="177" height="177" class="fills"/></svg>