<svg width="137" height="137" viewBox="0 0 137 137" fill="none" xmlns="http://www.w3.org/2000/svg">
<path fill-rule="evenodd" clip-rule="evenodd" d="M68.5 8C35.0691 8 8 35.0691 8 68.5C8 101.931 35.0691 129 68.5 129C101.931 129 129 101.931 129 68.5C129 35.0691 101.931 8 68.5 8ZM0 68.5C0 30.6509 30.6509 0 68.5 0C106.349 0 137 30.6509 137 68.5C137 106.349 106.349 137 68.5 137C30.6509 137 0 106.349 0 68.5Z" fill="white"/>
<path fill-rule="evenodd" clip-rule="evenodd" d="M70.7505 16L111.945 101.945H100.255L96.785 95.9455H41.5067L38.3467 101.945H26L70.7505 16ZM42.3091 87.9455H96.3636L70.4544 33.891L42.3091 87.9455Z" fill="white"/>
</svg>
